# xmcd
#
# Track frame offsets:
#	150
#	14075
#	32505
#	43155
#	53605
#	69040
#	79620
#	91565
#	105115
#	117745
#	132245
#	141665
#
# Disc length: 2124 seconds
#
# Revision: 1
# Processed by: cddbd v1.5.2PL0 Copyright (c) Steve Scherf et al.
# Submitted via: audiograbber 1.83.01
#
DISCID=96084a0c
DTITLE=Bjørn and Okay - Modne mænd
DYEAR=1988
DGENRE=Dansktop
TTITLE0=Modne mænd (1988)
TTITLE1=Jeg har en drøm (1988)
TTITLE2=Limbo rock (1988)
TTITLE3=Spinderokken (Instr) (1988)
TTITLE4=Kærlighedens samba (Sommerkvall) (1988)
TTITLE5=Her i vores hus (1988)
TTITLE6=Sikke'n dag (Hip hurra) (1988)
TTITLE7=Lille fugl (Du lilla fågel) (1988)
TTITLE8=Texas gule rose (1988)
TTITLE9=Far, jeg kan ikke få hul på kokosnøden (Instr) (1988)
TTITLE10=Ved du hvorfor jeg kigger sådan på dig (1988)
TTITLE11=Sol og sommer (1988)
EXTD=
EXTT0=
EXTT1=
EXTT2=
EXTT3=
EXTT4=
EXTT5=
EXTT6=
EXTT7=
EXTT8=
EXTT9=
EXTT10=
EXTT11=
PLAYORDER=
